<?xml version="1.0" encoding="UTF-8" standalone="no"?>
<svg
   xmlns:dc="http://purl.org/dc/elements/1.1/"
   xmlns:cc="http://creativecommons.org/ns#"
   xmlns:rdf="http://www.w3.org/1999/02/22-rdf-syntax-ns#"
   xmlns:svg="http://www.w3.org/2000/svg"
   xmlns="http://www.w3.org/2000/svg"
   viewBox="0 0 309.84 587.79999"
   height="304"
   width="200"
   xml:space="preserve"
   id="svg2"
   version="1.1"><metadata
     id="metadata8"><rdf:RDF><cc:Work
         rdf:about=""><dc:format>image/svg+xml</dc:format><dc:type
           rdf:resource="http://purl.org/dc/dcmitype/StillImage" /></cc:Work></rdf:RDF></metadata><defs
     id="defs6" /><g
     transform="matrix(1.3333333,0,0,-1.3333333,0,587.8)"
     id="g10"><g
       transform="scale(0.1)"
       id="g12"><path
         id="path14"
         style="fill:#f89e2e;fill-opacity:1;fill-rule:nonzero;stroke:none"
         d="m 1003,682.75 c -40.363,128.129 -40.141,240.691 0.8,335.34 57.06,131.94 172.93,177.86 177.82,179.76 21.86,8.41 46.37,-2.47 54.79,-24.31 8.35,-21.75 -2.41,-46.2 -24.11,-54.71 -1.88,-0.74 -89.27,-37.01 -131.3,-135.799 -37.91,-89.062 -29.52,-202.09 24.96,-335.832 82.36,-202.277 224.28,-267.129 328.84,-285.937 149.06,-26.793 287.25,26.269 313.44,54.789 15.8,17.238 42.62,18.398 59.87,2.578 17.25,-15.84 18.39,-42.641 2.57,-59.891 -26.89,-29.289 -83.57,-56.636 -151.64,-73.117 -54.89,-13.301 -140.97,-25.43 -239.24,-7.769 -125.49,22.546 -295.43,99.41 -392.35,337.378 -9.34,22.95 -17.5,45.469 -24.45,67.52" /><path
         id="path16"
         style="fill:#4b2d13;fill-opacity:1;fill-rule:nonzero;stroke:none"
         d="m 1954.18,435.66 c 0,0 -113.92,73.981 -159.02,39.512 0,0 -15.18,-14.383 -17.82,-36.152 l -5.07,34.781 c 0,0 -51.2,-8.031 -54.68,-125 0,0 42.94,-96.403 124.04,-64.629 l -31.72,38.047 c 0,0 39.84,-41.09 85.98,-14.137 46.15,26.949 58.29,127.578 58.29,127.578" /><path
         id="path18"
         style="fill:#f9a834;fill-opacity:1;fill-rule:nonzero;stroke:none"
         d="m 2035.15,1626.33 c 0,0 -61.35,89.65 -143.32,97.94 -89.65,9.07 -170.26,-89.97 -80.18,-224.44 56.29,-84.08 241.23,-248.05 284.14,-422.48 l 75.27,50.89 84.87,-6.87 c 0,0 -70.67,337.32 -220.78,504.96" /><path
         id="path20"
         style="fill:#451e14;fill-opacity:1;fill-rule:nonzero;stroke:none"
         d="m 2030.45,1515.38 c 29.86,-23.63 66.84,-32.05 103.59,-40.86 -27.97,55.99 -60.88,109.35 -98.89,151.81 0,0 -0.25,0.35 -0.72,1.02 -1.46,-2.44 -2.97,-4.91 -4.36,-7.35 -19.49,-34.39 -36.62,-75.33 0.38,-104.62" /><path
         id="path22"
         style="fill:#451e14;fill-opacity:1;fill-rule:nonzero;stroke:none"
         d="m 2058.26,1374.76 c -26.75,-1.66 -48.18,-37.05 -59.55,-57.68 -4.88,-8.85 -9.75,-18.4 -13.87,-28.32 18.58,-24.75 36.41,-50.56 52.43,-77.13 71.07,17 50.96,164.99 20.99,163.13" /><path
         id="path24"
         style="fill:#451e14;fill-opacity:1;fill-rule:nonzero;stroke:none"
         d="m 2211.46,1282.21 c -11.37,34.8 -24.99,72.77 -40.84,111.36 -1.25,-1.29 -2.47,-2.6 -3.57,-3.89 -18.04,-21.03 -35.38,-50.87 -40.25,-78.35 -9.21,-51.93 44.12,-43.68 84.66,-29.12" /><path
         id="path26"
         style="fill:#4b2d13;fill-opacity:1;fill-rule:nonzero;stroke:none"
         d="m 2070.34,1149.22 165.72,51.47 c 13.31,-48.07 19.87,-79.32 19.87,-79.32 l -160.14,-44.02 c -5.96,24.24 -14.73,48.23 -25.45,71.87" /><path
         id="path28"
         style="fill:#f9a834;fill-opacity:1;fill-rule:nonzero;stroke:none"
         d="m 288.621,1626.33 c 0,0 61.352,89.65 143.32,97.94 89.653,9.07 170.254,-89.97 80.176,-224.44 -56.289,-84.08 -241.226,-248.05 -284.137,-422.48 l -75.277,50.89 -84.8592,-6.87 c 0,0 70.6642,337.32 220.7772,504.96" /><path
         id="path30"
         style="fill:#451e14;fill-opacity:1;fill-rule:nonzero;stroke:none"
         d="m 194.465,1459.66 c 29.922,10.75 62.098,16.24 90.84,30.2 34.922,16.95 31.441,49.56 24.363,83.67 -3.992,19.27 -8.848,39.88 -16.582,58.86 -2.813,-3.7 -4.465,-6.06 -4.465,-6.06 -42.558,-47.53 -78.719,-108.7 -108.699,-171.95 4.863,1.79 9.726,3.55 14.543,5.28" /><path
         id="path32"
         style="fill:#451e14;fill-opacity:1;fill-rule:nonzero;stroke:none"
         d="m 181.445,1264.03 c 38.313,19.24 53.875,60.76 37.032,101.5 -17.051,41.25 -62.11,-3.42 -93.157,-45.02 -7.691,-21.82 -14.617,-42.86 -20.75,-62.54 24.473,-8.73 54.91,-4.96 76.875,6.06" /><path
         id="path34"
         style="fill:#451e14;fill-opacity:1;fill-rule:nonzero;stroke:none"
         d="m 416.395,1683.16 c 22.472,6.84 43.031,21.61 62.707,35.69 -14.766,5.1 -30.801,7.07 -47.161,5.42 -15.808,-1.6 -30.808,-6.26 -44.785,-12.67 3.254,-18.59 10.949,-34.02 29.239,-28.44" /><path
         id="path36"
         style="fill:#4b2d13;fill-opacity:1;fill-rule:nonzero;stroke:none"
         d="M 253.43,1149.22 87.707,1200.69 C 74.4063,1152.62 67.8438,1121.37 67.8438,1121.37 L 227.98,1077.35 c 5.958,24.24 14.723,48.23 25.45,71.87" /><path
         id="path38"
         style="fill:#f9a834;fill-opacity:1;fill-rule:nonzero;stroke:none"
         d="m 1020.12,149.309 81.58,722.16 H 618.77 l 175.898,-722.16 h 225.452" /><path
         id="path40"
         style="fill:#451e14;fill-opacity:1;fill-rule:nonzero;stroke:none"
         d="m 850.969,336.891 c -6.985,16.738 -51.985,166.05 -101.145,133.398 -10.105,-6.719 -19.133,-14.59 -27.754,-22.91 l 42.395,-174.051 c 17.32,3.774 34.898,7.07 50.723,13.461 21.335,8.609 46.66,24.02 35.781,50.102" /><path
         id="path42"
         style="fill:#451e14;fill-opacity:1;fill-rule:nonzero;stroke:none"
         d="m 982.82,336.219 c -7.382,-4.489 -14.285,-9.617 -19.468,-14.078 -24.282,-20.922 -86.809,-82.539 -46.457,-117.539 18.742,-16.274 70.07,5.429 84.445,22.308 17.15,20.25 21.61,64.488 26.23,89.469 7.79,42.191 -20.96,34.32 -44.75,19.84" /><path
         id="path44"
         style="fill:#4b2d13;fill-opacity:1;fill-rule:nonzero;stroke:none"
         d="M 1020.12,149.309 H 794.668 L 757.41,64.4688 h 292.5 l -29.79,84.8402" /><path
         id="path46"
         style="fill:#f9a834;fill-opacity:1;fill-rule:nonzero;stroke:none"
         d="m 1303.66,149.309 -81.58,722.16 h 482.93 l -175.9,-722.16 h -225.45" /><path
         id="path48"
         style="fill:#451e14;fill-opacity:1;fill-rule:nonzero;stroke:none"
         d="m 1352.15,361.109 c -18.74,19.039 -46.59,6.25 -71,-12.558 l 13.54,-119.77 c 44.24,-18.32 96.91,92.25 57.46,132.328" /><path
         id="path50"
         style="fill:#451e14;fill-opacity:1;fill-rule:nonzero;stroke:none"
         d="m 1502.81,384.129 c -34.71,15.73 -72.84,-82.59 -82.76,-105.27 -6.47,-14.757 -24.63,-45.058 -14.89,-60.66 9.32,-14.937 38.64,-1.269 49.95,4.141 24.64,11.789 54.11,21.789 64.82,49.199 9.42,24.063 12.63,99.141 -17.12,112.59" /><path
         id="path52"
         style="fill:#451e14;fill-opacity:1;fill-rule:nonzero;stroke:none"
         d="m 1579.58,470.07 c -14.47,-16.66 -23.4,-36.679 -10.22,-57.218 5.3,-8.293 11.68,-15.59 18.44,-22.582 l 24.57,100.902 c -13.92,-5.344 -28.57,-16.231 -32.79,-21.102" /><path
         id="path54"
         style="fill:#4b2d13;fill-opacity:1;fill-rule:nonzero;stroke:none"
         d="m 1303.66,149.309 h 225.45 l 37.26,-84.8402 h -292.5 l 29.79,84.8402" /><path
         id="path56"
         style="fill:#f89e2e;fill-opacity:1;fill-rule:nonzero;stroke:none"
         d="M 1436.42,2085.86 V 3506.79 H 887.355 V 2085.86 c -352.96,-160.7 -607.968,-603.73 -607.968,-955.11 0,-437.461 395.117,-681.238 882.493,-681.238 487.41,0 882.5,243.777 882.5,681.238 0,351.39 -255,794.41 -607.96,955.11" /><path
         id="path58"
         style="fill:#451e14;fill-opacity:1;fill-rule:nonzero;stroke:none"
         d="m 1339.77,2561.24 c -10.94,18.7 -30.43,33.18 -59.79,37.86 -48.21,7.68 -90.83,-23.33 -111.54,-71.4 -25.61,-59.43 34.07,-91.81 78.61,-94.85 23.25,-1.58 55.39,0.86 74.96,16.25 25.28,19.86 34.84,82.97 17.76,112.14" /><path
         id="path60"
         style="fill:#451e14;fill-opacity:1;fill-rule:nonzero;stroke:none"
         d="m 991.27,2004.58 c -109.075,27.14 -250.989,-25.08 -234.407,-162.11 14.035,-115.96 160.344,-121.67 244.187,-91.61 38.26,13.71 95.61,38.13 105.51,82.6 21.05,94.52 -39.11,152.18 -115.29,171.12" /><path
         id="path62"
         style="fill:#451e14;fill-opacity:1;fill-rule:nonzero;stroke:none"
         d="m 498.301,1324.14 c 46.328,43.17 106.504,99.28 124.004,162.27 14.238,51.23 5.254,106.78 -0.696,158.83 -5.867,51.37 -12.468,104.16 -28.855,153.45 -5.164,15.53 -11.516,32.28 -20.391,45.44 -176.726,-201.34 -288.925,-469.97 -292.707,-701.31 71.098,62.36 149.348,116.73 218.645,181.32" /><path
         id="path64"
         style="fill:#451e14;fill-opacity:1;fill-rule:nonzero;stroke:none"
         d="m 1913.35,1133.51 c -8.75,-26.96 -13.45,-55.03 -21.64,-82.16 -8.63,-28.61 -18.92,-56.702 -27.3,-85.389 -17.48,-59.859 -37.17,-138.223 17.92,-184.902 11.81,-10 24.59,-18.457 37.92,-26.02 78.81,101.762 124.13,227.621 124.13,375.711 0,1.73 -0.12,3.51 -0.13,5.25 -49.94,30.83 -111.17,58.29 -130.9,-2.49" /><path
         id="path66"
         style="fill:#451e14;fill-opacity:1;fill-rule:nonzero;stroke:none"
         d="m 1793.32,1533.59 c -42.95,-20.26 -66.27,-118.49 -65.75,-151.93 1.12,-72.44 84.56,-100.14 137.04,-58.59 53.34,42.22 24.76,157.03 -19.69,197.48 -19.44,17.7 -36.71,20.06 -51.6,13.04" /><path
         id="path68"
         style="fill:#451e14;fill-opacity:1;fill-rule:nonzero;stroke:none"
         d="m 485.305,879.852 c 14.617,48.957 0.488,118.117 -23.977,146.888 -55.066,64.79 -128.086,-68.939 -105.867,-122.502 12.801,-30.859 28.973,-80.738 70.457,-77.519 32.246,2.5 50.793,24.32 59.387,53.133" /><path
         id="path70"
         style="fill:#451e14;fill-opacity:1;fill-rule:nonzero;stroke:none"
         d="m 1326.26,2070.33 c -0.43,21.17 -7.77,42.71 -22.34,62 -18.57,24.57 -51.9,7.45 -73.01,-4.88 -37.11,-21.66 -101.23,-65.46 -71.08,-116.76 44.62,-75.88 168,-17.71 166.43,59.64" /><path
         id="path72"
         style="fill:#451e14;fill-opacity:1;fill-rule:nonzero;stroke:none"
         d="m 1514.49,1983.42 c -31.52,-32.58 -64.62,-68.67 -86.44,-108.69 -27.46,-50.34 -1.61,-79.3 33.46,-116.23 28.24,-29.74 58.23,-60.68 94.56,-80.49 39.22,-21.39 82.33,-28.66 122.31,-5.23 28.11,16.48 53.54,37.4 77.07,59.87 15.59,14.88 32.03,31.03 47.74,48.26 -71.31,93.48 -155.77,176.02 -249.71,239.06 -13.73,-11.48 -26.71,-23.85 -38.99,-36.55" /><path
         id="path74"
         style="fill:#451e14;fill-opacity:1;fill-rule:nonzero;stroke:none"
         d="m 1337.64,2244.54 c 23.43,-24.59 61.73,-34.95 98.78,-36.13 v 196.71 c -19.37,-15.75 -38.17,-32.18 -55.79,-49.74 -24.07,-23.98 -77.67,-74.45 -42.99,-110.84" /><path
         id="path76"
         style="fill:#451e14;fill-opacity:1;fill-rule:nonzero;stroke:none"
         d="m 1072.5,2356.39 c 19.89,23.77 28.04,48.57 11.47,77.23 -17.8,30.79 -46.39,54.92 -75.49,74.67 -30.531,20.72 -63.207,39.02 -97.55,52.63 -7.532,2.99 -15.461,6.17 -23.575,8.99 v -321.79 c 7.684,2.04 14.879,4.24 21.083,6.36 59.074,20.21 123.302,53.21 164.062,101.91" /><path
         id="path78"
         style="fill:#fbc737;fill-opacity:1;fill-rule:nonzero;stroke:none"
         d="m 1800.77,932.91 c 0,-310.422 -286.03,-483.398 -638.89,-483.398 -352.825,0 -638.884,172.976 -638.884,483.398 0,310.38 286.059,721.61 638.884,721.61 352.86,0 638.89,-411.23 638.89,-721.61" /><path
         id="path80"
         style="fill:#f9a834;fill-opacity:1;fill-rule:nonzero;stroke:none"
         d="m 1345.64,3882.02 v 265.22 h 110.74 l -12.5,-305.34 -98.24,40.12" /><path
         id="path82"
         style="fill:#451e14;fill-opacity:1;fill-rule:nonzero;stroke:none"
         d="m 1498.77,4318.34 c -26.39,30.81 -72.74,34.39 -103.55,8.01 -3.52,-3.02 -6.66,-6.33 -9.46,-9.82 -22.64,20.13 -57.18,21 -80.83,0.74 -25.83,-22.12 -28.83,-60.96 -6.71,-86.79 3.21,-3.75 6.81,-6.96 10.64,-9.75 -26.21,-26.16 -28.28,-68.48 -3.79,-97.07 25.7,-30.02 70.88,-33.51 100.9,-7.81 0.05,0.05 0.09,0.1 0.14,0.15 0.8,-1.05 1.56,-2.13 2.43,-3.14 27.13,-31.69 74.8,-35.39 106.48,-8.26 31.68,27.13 35.37,74.81 8.23,106.5 -5.98,6.99 -13.02,12.54 -20.61,16.78 19.24,26.84 18.56,64.26 -3.87,90.46" /><path
         id="path84"
         style="fill:#f9a834;fill-opacity:1;fill-rule:nonzero;stroke:none"
         d="m 978.125,3882.02 v 265.22 h -110.73 l 12.5,-305.34 98.23,40.12" /><path
         id="path86"
         style="fill:#451e14;fill-opacity:1;fill-rule:nonzero;stroke:none"
         d="m 825,4318.34 c 26.387,30.81 72.742,34.39 103.547,8.01 3.523,-3.02 6.656,-6.33 9.461,-9.82 22.644,20.13 57.18,21 80.832,0.74 25.83,-22.12 28.83,-60.96 6.71,-86.79 -3.21,-3.75 -6.81,-6.96 -10.64,-9.75 26.21,-26.16 28.28,-68.48 3.79,-97.07 -25.704,-30.02 -70.88,-33.51 -100.895,-7.81 -0.051,0.05 -0.102,0.1 -0.149,0.15 -0.801,-1.05 -1.551,-2.13 -2.429,-3.14 -27.129,-31.69 -74.797,-35.39 -106.477,-8.26 -31.68,27.13 -35.371,74.81 -8.23,106.5 5.984,6.99 13.015,12.54 20.613,16.78 -19.246,26.84 -18.567,64.26 3.867,90.46" /><path
         id="path88"
         style="fill:#f89e2e;fill-opacity:1;fill-rule:nonzero;stroke:none"
         d="m 1390.52,3879.09 c 0,0 451.64,235.62 688.97,79.07 0,0 -146.95,-339.93 -489.06,-278.88 0,0 -107.02,12.54 -213.87,91.75 l 13.96,108.06" /><path
         id="path90"
         style="fill:#fbc737;fill-opacity:1;fill-rule:nonzero;stroke:none"
         d="m 1403.87,3808.44 c 0,0 390.18,127.9 547.3,46.45 0,0 -136.53,-170.98 -365.77,-148.71 0,0 -115.92,22.13 -186.5,63.83 l 4.97,38.43" /><path
         id="path92"
         style="fill:#f89e2e;fill-opacity:1;fill-rule:nonzero;stroke:none"
         d="m 933.254,3879.09 c 0,0 -451.645,235.62 -688.977,79.07 0,0 146.953,-339.93 489.063,-278.88 0,0 107.019,12.54 213.867,91.75 l -13.953,108.06" /><path
         id="path94"
         style="fill:#fbc737;fill-opacity:1;fill-rule:nonzero;stroke:none"
         d="m 919.902,3808.44 c 0,0 -390.183,127.9 -547.304,46.45 0,0 136.535,-170.98 365.769,-148.71 0,0 115.918,22.13 186.504,63.83 l -4.969,38.43" /><path
         id="path96"
         style="fill:#f9a834;fill-opacity:1;fill-rule:nonzero;stroke:none"
         d="m 1799.83,3202.38 c 0,-342.13 -285.61,-532.81 -637.94,-532.81 -352.32,0 -637.945,190.68 -637.945,532.81 0,342.1 285.625,795.37 637.945,795.37 352.33,0 637.94,-453.27 637.94,-795.37" /><path
         id="path98"
         style="fill:#451e14;fill-opacity:1;fill-rule:nonzero;stroke:none"
         d="m 1524.79,3490.06 c 28.92,-42.57 92.94,-52.37 140.26,-56.33 32.15,-2.68 64.9,-3.26 97.3,-0.84 -31.34,101.18 -81.13,201.53 -144.65,288.97 -19.47,-21.8 -38.49,-43.96 -55.3,-67.99 -29.48,-42.14 -72.28,-112.75 -37.61,-163.81" /><path
         id="path100"
         style="fill:#451e14;fill-opacity:1;fill-rule:nonzero;stroke:none"
         d="m 740.703,3447.57 c -57.258,75.59 -129.59,-54.89 -146.711,-99.85 -14.551,-38.19 -27.801,-85.82 -11.988,-125.85 43.223,-109.38 136.934,-22.67 171.668,39.51 13.965,25 35.312,58.68 29.582,88.76 -6.535,34.26 -21.438,69.56 -42.551,97.43" /><path
         id="path102"
         style="fill:#451e14;fill-opacity:1;fill-rule:nonzero;stroke:none"
         d="m 1307.32,3855.46 c 40.39,12.95 78.11,34.54 114.02,58.93 -52.79,34.72 -109.34,60.11 -168.52,73.23 -12.68,-68.03 -26.69,-158.2 54.5,-132.16" /><path
         id="path104"
         style="fill:#451e14;fill-opacity:1;fill-rule:nonzero;stroke:none"
         d="m 1449.49,3736.53 c -1.03,28.49 -26.82,64.52 -48.94,70.47 -52.75,14.18 -66.3,-56.08 -38.62,-88.47 15.92,-18.64 63.25,-25.36 80.38,-5.38 5.4,6.29 7.5,14.47 7.18,23.38" /><path
         id="path106"
         style="fill:#451e14;fill-opacity:1;fill-rule:nonzero;stroke:none"
         d="m 794.004,3609.57 c -1.035,28.5 -26.824,64.52 -48.945,70.47 -52.746,14.18 -66.297,-56.07 -38.614,-88.47 15.918,-18.63 63.243,-25.36 80.379,-5.37 5.403,6.28 7.5,14.47 7.18,23.37" /><path
         id="path108"
         style="fill:#451e14;fill-opacity:1;fill-rule:nonzero;stroke:none"
         d="m 1121.44,3957.86 c 17.1,10.23 30.24,24.33 41.92,39.85 -0.49,0.01 -0.98,0.04 -1.47,0.04 -40.21,0 -79.5,-6.09 -117.64,-17.06 24.61,-22.89 51.55,-38.15 77.19,-22.83" /><path
         id="path110"
         style="fill:#451e14;fill-opacity:1;fill-rule:nonzero;stroke:none"
         d="m 1709.79,3012.44 c 1.28,-26.88 7.51,-53.75 16.32,-79.83 26.79,42.81 46.96,90.57 59.35,143.08 -40.44,-0.85 -78.17,-10.57 -75.67,-63.25" /><path
         id="path112"
         style="fill:#451e14;fill-opacity:1;fill-rule:nonzero;stroke:none"
         d="m 664.355,2982.07 c -14.89,23.77 -44.929,31.02 -71.335,32.73 -8.848,0.57 -22.793,1.82 -36.489,1.18 22.895,-60.86 57.16,-114.2 100.649,-159.62 12.605,41.91 28.125,92.24 7.175,125.71" /><path
         id="path114"
         style="fill:#451e14;fill-opacity:1;fill-rule:nonzero;stroke:none"
         d="m 1051.83,3854.05 c -9.89,13.81 -23.1,25.47 -37.42,32.93 -47.847,24.96 -90.113,-8.45 -114.664,-50.2 -25.906,-44.05 19.719,-128.29 70.852,-128.35 28.015,-0.03 63.312,33.04 80.902,51.65 26.88,28.43 20.59,65.69 0.33,93.97" /><path
         id="path116"
         style="fill:#451e14;fill-opacity:1;fill-rule:nonzero;stroke:none"
         d="m 1595.32,3174 c 15.89,-45.6 43.86,-106.31 82.93,-47.2 22.88,34.63 55.84,88.42 39.38,131.56 -13.58,35.59 -84,75.71 -122.1,58.78 -42.42,-18.86 -19.18,-85.88 -8.8,-117.12 1.82,-5.49 4.74,-14.96 8.59,-26.02" /><path
         id="path118"
         style="fill:#291511;fill-opacity:1;fill-rule:nonzero;stroke:none"
         d="m 1041.19,3563.81 c 0,-35.43 -28.73,-64.17 -64.178,-64.17 -35.43,0 -64.16,28.74 -64.16,64.17 0,35.44 28.73,64.17 64.16,64.17 35.448,0 64.178,-28.73 64.178,-64.17" /><path
         id="path120"
         style="fill:#ffffff;fill-opacity:1;fill-rule:nonzero;stroke:none"
         d="m 972.441,3583.81 c 0,-11.04 -8.945,-20 -20,-20 -11.035,0 -20,8.96 -20,20 0,11.05 8.965,20 20,20 11.055,0 20,-8.95 20,-20" /><path
         id="path122"
         style="fill:#ffffff;fill-opacity:1;fill-rule:nonzero;stroke:none"
         d="m 949.941,3541.73 c 0,-4.83 -3.925,-8.75 -8.75,-8.75 -4.824,0 -8.75,3.92 -8.75,8.75 0,4.82 3.926,8.75 8.75,8.75 4.825,0 8.75,-3.93 8.75,-8.75" /><path
         id="path124"
         style="fill:#291511;fill-opacity:1;fill-rule:nonzero;stroke:none"
         d="m 1410.92,3563.81 c 0,-35.43 -28.73,-64.17 -64.16,-64.17 -35.45,0 -64.18,28.74 -64.18,64.17 0,35.44 28.73,64.17 64.18,64.17 35.43,0 64.16,-28.73 64.16,-64.17" /><path
         id="path126"
         style="fill:#ffffff;fill-opacity:1;fill-rule:nonzero;stroke:none"
         d="m 1342.19,3583.81 c 0,-11.04 -8.97,-20 -20,-20 -11.06,0 -20,8.96 -20,20 0,11.05 8.94,20 20,20 11.03,0 20,-8.95 20,-20" /><path
         id="path128"
         style="fill:#ffffff;fill-opacity:1;fill-rule:nonzero;stroke:none"
         d="m 1319.69,3541.73 c 0,-4.83 -3.93,-8.75 -8.75,-8.75 -4.85,0 -8.75,3.92 -8.75,8.75 0,4.82 3.9,8.75 8.75,8.75 4.82,0 8.75,-3.93 8.75,-8.75" /><path
         id="path130"
         style="fill:#5f2f14;fill-opacity:1;fill-rule:nonzero;stroke:none"
         d="m 1580.55,2995.99 -56.43,153.8 c -79.84,226.48 -209.39,346.22 -358.18,350.75 v 0.23 c -1.33,0 -2.7,-0.1 -4.05,-0.12 -1.34,0.02 -2.69,0.12 -4.04,0.12 v -0.23 c -148.79,-4.53 -278.358,-124.27 -358.182,-350.75 l -56.445,-153.8 c 0,-163.31 184.863,-295.96 414.627,-299.29 v -0.15 c 1.35,0 2.7,0.05 4.04,0.07 1.35,-0.02 2.72,-0.07 4.05,-0.07 v 0.15 c 229.76,3.33 414.61,135.98 414.61,299.29" /><path
         id="path132"
         style="fill:#753b19;fill-opacity:1;fill-rule:nonzero;stroke:none"
         d="m 735.078,3045.2 c 0,-151.82 188.457,-275.14 422.672,-278.23 v -0.14 c 1.39,0 2.77,0.07 4.14,0.07 1.38,0 2.76,-0.07 4.14,-0.07 v 0.14 c 234.21,3.09 422.67,126.41 422.67,278.23 -484.72,244.64 -853.622,0 -853.622,0" /><path
         id="path134"
         style="fill:#5f2f14;fill-opacity:1;fill-rule:nonzero;stroke:none"
         d="m 1166.03,3514.25 v 0.21 c -1.38,0 -2.76,-0.08 -4.14,-0.1 -1.37,0.02 -2.75,0.1 -4.14,0.1 v -0.21 C 1006.07,3510.04 873.992,3398.73 792.605,3188.19 L 735.078,3045.2 c 0,0 368.902,244.64 853.622,0 l -57.53,142.99 c -81.38,210.54 -213.46,321.85 -365.14,326.06" /><path
         id="path136"
         style="fill:#271410;fill-opacity:1;fill-rule:nonzero;stroke:none"
         d="m 999.453,2938.48 c 26.327,-39 34.027,-76.97 17.167,-84.8 -16.835,-7.86 -51.815,17.41 -78.143,56.42 -26.329,38.98 -34.004,76.95 -17.176,84.79 16.863,7.84 51.851,-17.43 78.152,-56.41" /><path
         id="path138"
         style="fill:#271410;fill-opacity:1;fill-rule:nonzero;stroke:none"
         d="m 1324.32,2938.48 c -26.32,-39 -34.02,-76.97 -17.17,-84.8 16.84,-7.86 51.82,17.41 78.15,56.42 26.33,38.98 34,76.95 17.18,84.79 -16.85,7.84 -51.85,-17.43 -78.16,-56.41" /><path
         id="path140"
         style="fill:#df6b6e;fill-opacity:1;fill-rule:nonzero;stroke:none"
         d="m 1211.41,2766.83 c 0,0 34.99,-132.64 130,-136.39 95.01,-3.75 128.75,73.75 104.65,146.73 -17.19,52.1 -16.07,52.45 -16.07,52.45 0,0 -66.08,-50.43 -218.58,-62.79" /><path
         id="path142"
         style="fill:#893535;fill-opacity:1;fill-rule:nonzero;stroke:none"
         d="m 1381.34,2677.94 c -2.59,0 -4.78,2 -4.98,4.62 -6.33,83.23 -57.07,95.96 -59.23,96.46 -2.68,0.62 -4.37,3.3 -3.75,5.98 0.61,2.69 3.23,4.38 5.96,3.77 2.45,-0.54 60.07,-14.46 67,-105.45 0.2,-2.75 -1.86,-5.15 -4.61,-5.36 -0.13,-0.01 -0.27,-0.02 -0.39,-0.02" /></g></g></svg>